PathFileType	4	(X/Y/Z)	s03c0202.trc
DataRate	CameraRate	NumFrames	NumMarkers	Units	OrigDataRate	OrigDataStartFrame	OrigNumFrames
200	200	4	52	mm	200	250	2000
Frame#	Time	racr			lacr			c7			jug			rlel			rdr			llel			ldr			s2			lic			ric			lasi			rasi			rpsi			lpsi			rgt			lgt			rth1			rth2			rth3			rth4			rlfc			rmfc			rsh1			rsh2			rsh3			rsh4			rlmal			rmmal			rcal			rtoe			rmt5			rmt1			lth1			lth2			lth4			lth3			llfc			lmfc			lsh1			lsh2			lsh3			lsh4			llmal			lmmal			lcal			ltoe			lmt1			lmt5			SBIKE			LBIKE			RBIKE			
		X1	Y1	Z1	X2	Y2	Z2	X3	Y3	Z3	X4	Y4	Z4	X5	Y5	Z5	X6	Y6	Z6	X7	Y7	Z7	X8	Y8	Z8	X9	Y9	Z9	X10	Y10	Z10	X11	Y11	Z11	X12	Y12	Z12	X13	Y13	Z13	X14	Y14	Z14	X15	Y15	Z15	X16	Y16	Z16	X17	Y17	Z17	X18	Y18	Z18	X19	Y19	Z19	X20	Y20	Z20	X21	Y21	Z21	X22	Y22	Z22	X23	Y23	Z23	X24	Y24	Z24	X25	Y25	Z25	X26	Y26	Z26	X27	Y27	Z27	X28	Y28	Z28	X29	Y29	Z29	X30	Y30	Z30	X31	Y31	Z31	X32	Y32	Z32	X33	Y33	Z33	X34	Y34	Z34	X35	Y35	Z35	X36	Y36	Z36	X37	Y37	Z37	X38	Y38	Z38	X39	Y39	Z39	X40	Y40	Z40	X41	Y41	Z41	X42	Y42	Z42	X43	Y43	Z43	X44	Y44	Z44	X45	Y45	Z45	X46	Y46	Z46	X47	Y47	Z47	X48	Y48	Z48	X49	Y49	Z49	X50	Y50	Z50	X51	Y51	Z51	X52	Y52	Z52	
250	1.2500	502.934971	1342.437149	-21.781719	557.339629	1365.021980	-318.539649	461.226478	1438.738437	-169.967656	458.381565	1264.125389	-179.376621	523.191271	1130.689181	151.516020	715.306585	989.670012	-5.415880	575.770466	1196.768825	-543.521140	720.623682	981.164817	-419.024409	-92.431165	1225.999830	-233.932325	86.554813	1247.025794	-412.040000	71.905828	1233.221116	-48.152546	88.641942	1170.318426	-386.851550	103.504105	1173.525129	-93.472540	-59.500571	1271.654002	-192.401971	-53.573884	1274.474645	-272.361609	29.701307	1151.785218	-41.815442	7.254030	1139.357549	-445.669658	144.120605	1034.172851	-36.801263	227.923415	1005.728500	-44.873090	286.812943	943.524192	-55.940898	246.464884	1035.861624	-56.747986	377.161994	852.009226	-91.880747	372.099204	836.055011	-212.363620	346.875499	686.958770	-57.130863	345.143394	598.055377	-69.836820	301.130061	522.012223	-63.312310	369.296848	592.824285	-99.062045	258.345367	395.086980	-69.027405	271.839608	404.979338	-163.007618	201.513040	329.352771	-102.659212	503.664330	404.894869	-119.909844	396.502368	360.696890	-43.443807	410.664968	380.088910	-159.281533	111.782906	1027.290387	-473.636394	186.473267	985.374166	-483.590634	212.100159	1009.255281	-473.378919	231.159556	908.015608	-489.896349	323.761729	812.030351	-486.439357	334.533584	799.977422	-358.215116	217.919892	670.129124	-487.653642	190.700027	595.499410	-459.183151	122.425254	537.272714	-443.304285	219.578339	580.918619	-436.386820	43.293043	448.038583	-409.718099	81.309686	448.219794	-326.320301	-26.377171	451.169695	-359.413074	198.464473	236.086331	-355.622718	131.012085	300.262217	-318.379519	95.293154	299.513903	-429.157501	-217.362759	943.839775	-235.083257	-11.999895	80.858218	-435.528954	-12.094589	80.979670	-35.141530	
251	1.2550	505.084380	1341.338953	-22.272214	557.924071	1364.271659	-318.947501	463.045321	1438.050557	-170.055906	459.472116	1263.775412	-179.687416	524.143036	1130.426708	152.427837	715.199681	989.562511	-5.271808	577.088455	1197.070830	-544.055912	720.608935	981.124721	-419.230891	-91.848053	1227.630314	-231.862308	86.376084	1248.549978	-410.795298	72.908151	1232.960713	-46.758176	88.509984	1171.537233	-386.049584	103.991230	1173.237759	-92.560105	-59.159413	1272.900186	-189.938071	-53.057038	1276.029526	-270.142031	29.763604	1150.897420	-40.794298	6.972903	1142.095990	-444.663241	142.450509	1031.144168	-35.799638	225.746064	1001.226044	-43.675391	283.578946	938.001250	-55.093991	244.867653	1031.141149	-55.144964	372.472822	845.652457	-90.864868	367.854002	830.096086	-211.069222	344.400983	680.574768	-56.289156	343.755210	591.579002	-68.981724	300.696570	515.081575	-62.412432	367.920398	586.685005	-97.965696	259.291584	387.522094	-68.204010	272.449815	397.621488	-162.067026	202.775919	321.907962	-101.655937	504.838377	397.349994	-120.049993	397.899610	352.980513	-43.056432	411.690734	372.932412	-158.462139	111.303150	1031.239651	-473.906063	186.229029	989.854228	-484.597597	211.741863	1013.808557	-474.225788	231.364192	912.756411	-491.550678	324.708159	817.026554	-489.470475	336.197761	804.603653	-361.035879	217.481875	675.794688	-489.486910	189.791890	601.360965	-460.411186	121.249070	543.966248	-443.832030	218.919162	586.689917	-438.139297	41.763546	455.458543	-409.458048	80.656833	455.667816	-326.360004	-27.735470	458.519396	-358.688011	197.476051	243.610424	-356.119127	129.869860	307.590521	-318.401746	93.797283	307.053459	-429.152379	-217.300189	943.863407	-234.917576	-11.998179	80.888792	-435.513414	-12.073635	80.960692	-35.118341	
252	1.2600	507.232675	1340.333783	-22.796245	558.327312	1363.706453	-319.468280	464.751409	1437.508074	-170.246095	460.507935	1263.452148	-180.087548	525.320381	1130.304070	152.951734	715.179559	989.431668	-5.183196	578.231838	1197.318026	-544.452371	720.842682	981.298197	-419.298046	-91.283044	1229.069854	-229.675144	86.262976	1250.022910	-409.530638	73.830328	1232.587698	-45.338276	88.492609	1172.607260	-385.088727	104.551165	1172.874844	-91.558926	-58.692102	1273.855602	-187.594539	-52.227306	1277.185212	-268.115851	29.856645	1149.821167	-39.770142	6.753521	1144.865037	-443.540670	140.838767	1028.032920	-34.787153	223.614923	996.643421	-42.576663	280.470508	932.286419	-53.996196	243.400129	1026.290392	-53.632880	367.841987	839.409944	-89.952974	363.252015	823.801610	-209.789211	341.491540	674.410955	-55.330502	341.971543	585.445918	-67.889512	299.903785	508.361278	-61.522203	366.149453	580.871908	-97.014386	259.996687	380.145256	-67.566255	273.388108	390.219274	-161.375423	203.680400	314.576224	-100.859194	505.784904	389.662552	-120.046055	399.093026	345.329397	-42.774899	412.145311	365.469497	-158.038452	110.921631	1035.127305	-474.257225	186.095263	994.444595	-485.688625	211.475864	1018.469751	-475.132044	231.691353	917.659374	-493.534502	325.627573	822.453479	-493.114850	337.656441	809.078649	-363.924286	217.502764	681.655800	-491.398854	189.386457	607.516031	-461.864461	120.467022	550.728964	-444.450511	218.617076	592.602887	-439.950782	40.660366	462.958212	-409.328033	80.314563	463.053419	-326.418525	-28.695045	465.944153	-358.073412	196.629728	251.225574	-356.310104	129.229910	315.168723	-318.684362	92.726288	314.712767	-429.125653	-217.236453	943.896476	-234.763956	-11.981290	80.913490	-435.541316	-12.074457	80.955405	-35.109724	
253	1.2650	509.468587	1339.274402	-23.977743	559.358692	1363.915260	-319.959314	466.348703	1437.040084	-170.397591	461.482298	1263.381195	-180.626929	526.586560	1130.263575	153.422319	715.278177	989.307963	-5.129526	579.219903	1197.520478	-544.823775	721.160194	981.582056	-419.464259	-90.707552	1230.187523	-227.915338	86.121286	1251.489974	-408.181039	74.811009	1232.119747	-43.827132	88.683331	1173.788180	-384.327585	105.671920	1172.301889	-89.982110	-56.868222	1273.772091	-186.353878	-50.351335	1277.438518	-266.992498	30.028577	1148.588496	-38.804165	6.635522	1147.592845	-442.380564	139.302242	1024.789546	-33.815569	221.604727	992.148711	-41.440351	277.451333	926.634870	-53.176009	241.919335	1021.538916	-52.158548	363.317734	833.254106	-89.022968	358.431149	817.530948	-208.533752	338.148246	668.300075	-54.248688	339.859417	579.288572	-66.836188	298.762654	501.639235	-60.611186	364.312005	575.026314	-96.101437	260.372472	372.767355	-67.122049	273.780475	383.145749	-160.699168	204.341938	307.514919	-100.258656	506.663540	381.700520	-120.394985	400.145845	337.819092	-42.475790	413.065732	357.059236	-159.533367	110.631148	1039.092279	-474.532269	186.075503	999.034927	-486.750269	211.278941	1023.163467	-476.100013	232.180824	922.672896	-495.549311	326.890215	827.721489	-496.324806	338.496322	812.841745	-366.491400	217.864463	687.467926	-493.445426	189.464092	613.740258	-463.403014	120.152160	557.636313	-445.175438	218.691675	598.479027	-441.662452	39.968468	470.528032	-409.289785	80.146407	470.697463	-326.578061	-29.386314	473.543521	-357.352380	196.082276	258.971605	-356.564937	128.864778	322.929744	-318.912394	92.013101	322.407472	-429.164091	-217.214129	943.944724	-234.802887	-11.964522	80.952873	-435.521890	-12.040460	80.927736	-35.079175	
